<?xml version="1.0" encoding="UTF-8"?>
<!-- Created with Inkscape (http://www.inkscape.org/) -->
<svg width="128" height="128" version="1.1" viewBox="0 0 33.867 33.867" xmlns="http://www.w3.org/2000/svg">
 <g transform="matrix(.64768 0 0 .64768 -37.025 -21.808)" fill="#fff" style="shape-inside:url(#rect7249);white-space:pre" aria-label="001 100 101">
  <path d="m74.485 41.816q0 3.9609-1.4648 6.0586-1.4531 2.0859-4.3008 2.0859-2.8477 0-4.2773-2.0742-1.4297-2.0859-1.4297-6.0703 0-4.0898 1.3945-6.1172 1.3945-2.0273 4.3828-2.0273 2.918 0 4.3008 2.0508 1.3945 2.0391 1.3945 6.0938zm-2.1445 0q0-3.3984-0.83203-4.9102-0.82031-1.5234-2.7188-1.5234-1.9453 0-2.8008 1.5-0.84375 1.5-0.84375 4.9336 0 3.3398 0.85547 4.8867 0.86719 1.5352 2.7422 1.5352 1.8633 0 2.7305-1.582 0.86719-1.582 0.86719-4.8398zm-4.9688 1.4062v-2.918h2.7539v2.918z"/>
  <path d="m88.888 41.816q0 3.9609-1.4648 6.0586-1.4531 2.0859-4.3008 2.0859-2.8477 0-4.2773-2.0742-1.4297-2.0859-1.4297-6.0703 0-4.0898 1.3945-6.1172 1.3945-2.0273 4.3828-2.0273 2.918 0 4.3008 2.0508 1.3945 2.0391 1.3945 6.0938zm-2.1445 0q0-3.3984-0.83203-4.9102-0.82031-1.5234-2.7188-1.5234-1.9453 0-2.8008 1.5-0.84375 1.5-0.84375 4.9336 0 3.3398 0.85547 4.8867 0.86719 1.5352 2.7422 1.5352 1.8633 0 2.7305-1.582 0.86719-1.582 0.86719-4.8398zm-4.9688 1.4062v-2.918h2.7539v2.918z"/>
  <path d="m92.204 49.726v-1.6992h5.1445v-11.965q-0.43359 0.91406-2.0625 1.5938-1.6172 0.67969-3.1875 0.67969v-1.7344q1.7344 0 3.2695-0.76172 1.5469-0.76172 2.1562-1.9219h1.9453v14.109h4.1367v1.6992z"/>
  <path d="m63.399 67.726v-1.6992h5.1445v-11.965q-0.43359 0.91406-2.0625 1.5938-1.6172 0.67969-3.1875 0.67969v-1.7344q1.7344 0 3.2695-0.76172 1.5469-0.76172 2.1562-1.9219h1.9453v14.109h4.1367v1.6992z"/>
  <path d="m88.888 59.816q0 3.9609-1.4648 6.0586-1.4531 2.0859-4.3008 2.0859-2.8477 0-4.2773-2.0742-1.4297-2.0859-1.4297-6.0703 0-4.0898 1.3945-6.1172 1.3945-2.0273 4.3828-2.0273 2.918 0 4.3008 2.0508 1.3945 2.0391 1.3945 6.0938zm-2.1445 0q0-3.3984-0.83203-4.9102-0.82031-1.5234-2.7188-1.5234-1.9453 0-2.8008 1.5-0.84375 1.5-0.84375 4.9336 0 3.3398 0.85547 4.8867 0.86719 1.5352 2.7422 1.5352 1.8633 0 2.7305-1.582 0.86719-1.582 0.86719-4.8398zm-4.9688 1.4062v-2.918h2.7539v2.918z"/>
  <path d="m103.29 59.816q0 3.9609-1.4648 6.0586-1.4531 2.0859-4.3008 2.0859t-4.2773-2.0742q-1.4297-2.0859-1.4297-6.0703 0-4.0898 1.3945-6.1172t4.3828-2.0273q2.918 0 4.3008 2.0508 1.3945 2.0391 1.3945 6.0938zm-2.1445 0q0-3.3984-0.83203-4.9102-0.82032-1.5234-2.7188-1.5234-1.9453 0-2.8008 1.5-0.84375 1.5-0.84375 4.9336 0 3.3398 0.85547 4.8867 0.86719 1.5352 2.7422 1.5352 1.8633 0 2.7305-1.582 0.86719-1.582 0.86719-4.8398zm-4.9688 1.4062v-2.918h2.7539v2.918z"/>
  <path d="m63.399 85.726v-1.6992h5.1445v-11.965q-0.43359 0.91406-2.0625 1.5938-1.6172 0.67969-3.1875 0.67969v-1.7344q1.7344 0 3.2695-0.76172 1.5469-0.76172 2.1562-1.9219h1.9453v14.109h4.1367v1.6992z"/>
  <path d="m88.888 77.816q0 3.9609-1.4648 6.0586-1.4531 2.0859-4.3008 2.0859-2.8477 0-4.2773-2.0742-1.4297-2.0859-1.4297-6.0703 0-4.0898 1.3945-6.1172 1.3945-2.0273 4.3828-2.0273 2.918 0 4.3008 2.0508 1.3945 2.0391 1.3945 6.0938zm-2.1445 0q0-3.3984-0.83203-4.9102-0.82031-1.5234-2.7188-1.5234-1.9453 0-2.8008 1.5-0.84375 1.5-0.84375 4.9336 0 3.3398 0.85547 4.8867 0.86719 1.5352 2.7422 1.5352 1.8633 0 2.7305-1.582 0.86719-1.582 0.86719-4.8398zm-4.9688 1.4062v-2.918h2.7539v2.918z"/>
  <path d="m92.204 85.726v-1.6992h5.1445v-11.965q-0.43359 0.91406-2.0625 1.5938-1.6172 0.67969-3.1875 0.67969v-1.7344q1.7344 0 3.2695-0.76172 1.5469-0.76172 2.1562-1.9219h1.9453v14.109h4.1367v1.6992z"/>
 </g>
</svg>
