<?xml version="1.0" encoding="UTF-8"?>
<!-- Created with Inkscape (http://www.inkscape.org/) -->
<svg width="512" height="512" version="1.1" viewBox="0 0 135.47 135.47" xmlns="http://www.w3.org/2000/svg">
 <g display="none" fill="none" stroke="#000" stroke-linecap="round" stroke-linejoin="bevel">
  <path d="m36.96 54.283 30.773-13.45 30.773 13.45-30.773 13.45z" display="inline" stroke-width=".2"/>
  <path d="m36.96 54.283 30.773 13.45 0.0365 35.853-30.773-13.45z" display="inline" stroke-width=".2"/>
  <path d="m98.507 54.283-30.773 13.45-0.0365 35.853 30.773-13.45z" display="inline" stroke-width=".2"/>
 </g>
 <g transform="translate(-36.962 -41.566)">
  <g transform="matrix(2.2011 0 0 2.2011 -44.395 -49.477)" fill="#999">
   <g transform="matrix(-.80081 0 0 .80081 378.89 -12.662)" stroke-width=".3304" style="shape-inside:url(#rect23687);white-space:pre" aria-label="C">
    <path d="m384.8 68.422c1.0764-0.47101 1.838-0.62254 2.2846-0.45458 0.44671 0.16797 0.6705 0.67579 0.67134 1.5235l0.012 11.993c8.5e-4 0.84828-0.22181 1.5519-0.66799 2.1108-0.44617 0.55889-1.2077 1.0738-2.2846 1.5449-1.0769 0.47101-1.8387 0.62237-2.2855 0.45408-0.44679-0.16828-0.67054-0.67658-0.67125-1.5249-1e-3 -1.648-0.40967-2.9724-1.2248-3.9732-0.7888-1.0122-2.0105-1.5562-3.6652-1.6321-1.6545-0.10006-3.7024 0.38397-6.1436 1.4521-2.8348 1.2403-5.3542 3.0331-7.5584 5.3785-2.178 2.334-3.8834 5.0551-5.1164 8.1634-1.2069 3.0972-1.8101 6.367-1.8095 9.8097 5.7e-4 3.4433 0.5787 6.1981 1.7346 8.2641 1.156 2.0421 2.798 3.2897 4.926 3.7428 2.1282 0.4531 4.611 0.0596 7.4483-1.1807 2.6011-1.137 5.0838-2.5742 7.4481-4.3118 2.3644-1.7375 4.492-3.6871 6.3828-5.8487 0.44642-0.53497 0.93242-0.91734 1.458-1.1471 0.78836-0.34466 1.4852-0.17599 2.0906 0.50604 0.4738 0.52113 0.71099 1.0608 0.71156 1.6189 7.4e-4 0.72801-0.40601 1.5371-1.2203 2.4271-2.4428 2.646-5.1094 5.0013-7.9998 7.0659-2.8639 2.0531-5.82 3.7457-8.8682 5.078-4.0989 1.7915-7.6854 2.4364-10.759 1.9351-3.0473-0.53703-5.4113-2.1247-7.0922-4.7626-1.6543-2.6489-2.4813-6.2044-2.4813-10.666 0-4.4366 0.85289-8.712 2.5585-12.827 1.7053-4.1383 4.0928-7.8114 7.1625-11.02 3.0959-3.2198 6.625-5.6966 10.588-7.4307 2.4671-1.0796 4.659-1.6511 6.5757-1.7146 1.9169-0.06348 3.5323 0.33213 4.8462 1.1869l-2e-3 -2.1073c-7.1e-4 -0.8477 0.22193-1.5508 0.66792-2.1094 0.44598-0.55856 1.2072-1.0733 2.2836-1.5444z" fill="#999"/>
   </g>
   <g transform="matrix(.26458 0 0 .26458 30.095 67.243)" style="shape-inside:url(#rect27841);white-space:pre" aria-label="U">
    <path d="m251.7 83.584c2.419 1.0585 3.6148 2.0297 3.5877 2.9138 0.10795 0.88717-1.0211 1.849-3.3872 2.8856-2.3662 1.0366-4.5945 1.5456-6.685 1.5269-1.9554-0.01556-4.1428-0.55256-6.562-1.611l-6.6177-2.8954-63.151 27.663c-13.378 5.86-27.281 8.522-41.712 7.9855-14.361-0.50545-28.668-3.8725-42.92-10.102-14.255-6.2302-22.003-12.504-23.245-18.82-1.1704-6.285 4.94-12.358 18.33-18.218l63.209-27.663-6.6241-2.8982c-2.4219-1.0596-3.6868-2.0333-3.7949-2.9211 0.0272-0.8846 1.2253-1.8452 3.5943-2.8818 2.3689-1.0366 4.5321-1.5468 6.4895-1.5307 2.0927 0.01926 4.3498 0.5587 6.7713 1.6183l34.607 15.143c2.4206 1.0592 3.6173 2.031 3.5902 2.9153 0.10801 0.8875-1.0218 1.8495-3.3896 2.8861-2.3678 1.0366-4.5977 1.5454-6.6896 1.5264-1.9568-0.01588-4.1457-0.55341-6.5666-1.6126l-11.963-5.2341-61.277 26.822c-9.8002 4.2897-14.53 8.3866-14.19 12.29 0.34045 3.9039 5.4637 8.0209 15.369 12.351 9.9043 4.3294 19.317 6.5667 28.238 6.7121 8.9201 0.1454 18.277-1.9269 28.072-6.2166l61.241-26.822-11.958-5.2317c-2.4201-1.0589-3.6842-2.032-3.7923-2.9195 0.0272-0.8843 1.2244-1.8448 3.5918-2.8814 2.3672-1.0366 4.5289-1.547 6.485-1.5312 2.0913 0.01896 4.3468 0.55787 6.7666 1.6167z" fill="#999"/>
   </g>
   <g transform="matrix(-.26458 0 0 .26458 94.099 0)" style="shape-inside:url(#rect30796);white-space:pre" aria-label="B">
    <path d="m164.34 182.61c8.9248 3.91 16.514 8.7553 22.767 14.536 6.2537 5.7808 10.944 12.131 14.07 19.052 3.2029 6.8783 4.8041 14.006 4.8035 21.384-5e-4 5.7812-1.336 10.332-4.0068 13.651-2.5948 3.2772-6.3342 5.2544-11.218 5.9317 8.0883 6.1291 14.269 13.021 18.541 20.677 4.3493 7.6132 6.524 15.645 6.524 24.097 0 7.9957-1.7174 14.137-5.1525 18.422-3.4355 4.286-8.4365 6.5544-15.003 6.8047-6.5672 0.25039-14.509-1.6627-23.826-5.7395l-64.969-28.429c-2.5978-1.1368-4.4694-2.5275-5.6144-4.1719-1.0685-1.6872-1.6013-3.9403-1.5984-6.7592 0.0029-2.8189 0.53983-4.5654 1.6105-5.2401 1.1473-0.71729 3.0197-0.50751 5.6172 0.62926l13.98 6.1182 0.0869-104.46-13.967-6.1182c-2.5951-1.1368-4.4647-2.5263-5.6085-4.1684-1.0673-1.6846-1.5996-3.9335-1.5968-6.7465 0.0029-2.8129 0.53926-4.5552 1.6088-5.2275 1.1461-0.71473 3.0165-0.50367 5.6113 0.63311zm-26.245 46.244 23.701 10.378c8.7769 3.8432 15.417 4.9244 19.921 3.2437 4.503-1.6805 6.7552-5.868 6.7568-12.562 2e-3 -6.9975-2.2093-13.252-6.6329-18.764-4.4236-5.5121-11.098-10.223-20.024-14.133l-23.692-10.378zm-0.0424 62.24 30.357 13.286c9.3921 4.1104 16.608 5.2495 21.648 3.4178 5.1156-1.7982 7.6739-6.3907 7.675-13.777 2e-3 -15.684-9.5739-27.717-28.731-36.105l-30.917-13.536z" fill="#999"/>
   </g>
  </g>
  <g transform="matrix(2.2011 0 0 2.2011 -44.395 -49.477)" fill="#fff" stroke-width=".23156">
   <g transform="matrix(1.1426 0 0 1.1426 -74.832 -364.37)" style="shape-inside:url(#rect6040);white-space:pre" aria-label="D">
    <path d="m138.34 360.56c2.6594 1.1623 4.4524 2.422 5.3791 3.779 0.94175 1.3504 0.94209 2.7125 1e-3 4.0862-0.90899 1.3745-2.74 2.6634-5.4931 3.8667-2.7531 1.2032-5.7021 2.0035-8.847 2.4008-3.128 0.40469-6.2444 0.40454-9.3493-4.5e-4 -3.0897-0.4116-5.9643-1.1986-8.6237-2.3609l-11.967-5.2305c-0.57593-0.25172-0.87749-0.48269-0.90467-0.6929 0.0049-0.20943 0.28717-0.43645 0.84685-0.68107 0.5597-0.24462 1.0716-0.36469 1.5356-0.36021 0.49611 5e-3 1.0321 0.13376 1.6081 0.38548l2.8458 1.2438 20.761-9.074-2.8458-1.2438c-0.57593-0.25172-0.87748-0.48269-0.90465-0.69292 5e-3 -0.20942 0.28717-0.43645 0.84685-0.68106 0.55968-0.24462 1.0715-0.36469 1.5356-0.36021 0.49611 5e-3 1.0321 0.13376 1.6081 0.38548zm-29.158 8.1017 4.726 2.0656c2.0158 0.88101 4.1622 1.4754 6.4394 1.7831 2.2924 0.3011 4.6165 0.29215 6.9725-0.0268 2.3711-0.32559 4.6685-0.97433 6.8921-1.9462 2.2236-0.97185 3.7004-1.9726 4.4302-3.0024 0.74497-1.0363 0.773-2.0554 0.0841-3.0573-0.68892-1.0019-2.0413-1.9434-4.057-2.8244l-4.726-2.0656z" fill="#fff"/>
   </g>
   <g transform="matrix(1.1426 0 0 1.1426 -112.79 -330.12)" style="shape-inside:url(#rect6040-5);white-space:pre" aria-label="E">
    <path d="m156 367.36c0.72121 0.31569 1.2312 0.67109 1.53 1.0662 0.29879 0.39506 0.44787 0.90076 0.44725 1.517l-8e-3 7.8394c-6.7e-4 0.65066-0.13298 1.0589-0.39692 1.2247-0.24633 0.15593-0.66829 0.10299-1.2659-0.15881l-23.55-10.317c-0.59662-0.26138-1.0266-0.58158-1.2901-0.96062-0.24593-0.38895-0.36923-0.90873-0.3699-1.5594-6.6e-4 -0.65074 0.12172-1.0542 0.36716-1.2105 0.26298-0.16615 0.69286-0.11853 1.2896 0.14285l2.6858 1.1763-0.0167-24.188-2.6907-1.1763c-0.59787-0.26138-1.0288-0.58215-1.2928-0.96231-0.24645-0.39013-0.37001-0.91188-0.37068-1.5653-6.6e-4 -0.65347 0.12198-1.0589 0.36793-1.2162 0.26354-0.16733 0.69432-0.12031 1.2924 0.14107l23.078 10.086c0.59898 0.26179 1.0217 0.58791 1.268 0.97834 0.26402 0.38047 0.39571 0.89746 0.39507 1.5509l-7e-3 6.7253c-6e-4 0.61746-0.15068 0.99302-0.45022 1.1267-0.29953 0.13367-0.81015 0.0427-1.5319-0.27302-0.72169-0.31566-1.232-0.67122-1.5311-1.0667-0.29904-0.39547-0.44835-0.90191-0.44793-1.5194l3e-3 -4.9241-14.125-6.175 4e-3 9.8181 6.8048 2.9771 3e-4 -2.4069c7e-5 -0.61729 0.13207-1.0005 0.39599-1.1497 0.28154-0.14147 0.77419-0.0583 1.478 0.2495 0.70382 0.30783 1.1877 0.65177 1.4515 1.0318 0.28144 0.38773 0.42203 0.89026 0.42178 1.5076l-3e-3 8.407c-2.5e-4 0.61643-0.14109 0.99515-0.4225 1.1362-0.26382 0.1487-0.74732 0.0691-1.4505-0.2387-0.70316-0.30781-1.1953-0.65534-1.4765-1.0426-0.26363-0.37959-0.39541-0.87759-0.39533-1.494l3e-4 -2.4047-6.8029-2.9771 4e-3 10.775 14.626 6.406 4e-3 -6.0453c4.5e-4 -0.61629 0.15025-0.99109 0.44943-1.1244 0.2992-0.13328 0.80938-0.0421 1.5305 0.27357z" fill="#fff"/>
   </g>
   <g transform="matrix(1.1426 0 0 1.1426 -42.848 -319.84)" style="shape-inside:url(#rect6040-5-2);white-space:pre" aria-label="X">
    <path d="m121.5 328.41c0.5408-0.23637 0.9224-0.26188 1.1448-0.0766 0.23831 0.16069 0.35715 0.56779 0.35652 1.2212-6.3e-4 0.65341-0.12034 1.1735-0.35912 1.5603-0.22286 0.36218-0.6046 0.66145-1.1452 0.89781l-1.5505 0.67785-7.375 14.707 8.2382 9.0951 1.3809-0.60482c0.53964-0.23635 0.92041-0.26246 1.1423-0.0783 0.23778 0.15958 0.35634 0.56476 0.35568 1.2155-6.7e-4 0.65066-0.12014 1.1688-0.35842 1.5544-0.22239 0.36105-0.60333 0.65974-1.1428 0.89609l-8.428 3.6923c-0.53979 0.23649-0.92875 0.27504-1.1669 0.11565-0.22226-0.18394-0.33335-0.60122-0.33325-1.2519 1e-4 -0.65073 0.11135-1.1567 0.33374-1.518 0.23828-0.38578 0.62739-0.69693 1.1673-0.93341l2.5963-1.1371-6.0745-6.9777-6.2201 12.362 1.9783-0.86646c0.54021-0.23661 0.92156-0.26289 1.144-0.0789 0.23836 0.15947 0.3576 0.56459 0.35773 1.2153 1.4e-4 0.65066-0.1189 1.1688-0.35709 1.5545-0.22231 0.36115-0.60348 0.66003-1.1436 0.89663l-7.7219 3.383c-0.54035 0.23673-0.92986 0.27546-1.1685 0.11617-0.22282-0.18384-0.33456-0.60107-0.33522-1.2517-6.62e-4 -0.65074 0.11016-1.1568 0.33248-1.5181 0.23819-0.38589 0.62754-0.69721 1.168-0.93394l1.4784-0.6475 8.3169-16.401-7.4523-8.1738-1.6482 0.72055c-0.54148 0.23673-0.93179 0.27488-1.1709 0.11446-0.22325-0.18503-0.33519-0.60423-0.33582-1.2576-6.3e-4 -0.65347 0.11044-1.1614 0.33321-1.5239 0.23869-0.38708 0.62886-0.69898 1.1705-0.93571l8.2175-3.5916c0.5413-0.23658 0.92341-0.26225 1.1463-0.077 0.23882 0.16058 0.35826 0.56763 0.35833 1.2211 8e-5 0.6534-0.11924 1.1735-0.35794 1.5604-0.22279 0.36228-0.60475 0.6617-1.1459 0.89828l-2.125 0.92902 5.2761 6.0569 5.2983-10.68-1.4318 0.62594c-0.54093 0.23648-0.9307 0.27447-1.1693 0.11394-0.2227-0.18513-0.33399-0.60438-0.33387-1.2578 1.3e-4 -0.65347 0.11161-1.1614 0.33446-1.5237 0.23878-0.38697 0.62872-0.6987 1.1698-0.93519z" fill="#fff"/>
   </g>
  </g>
 </g>
 <g transform="matrix(1 0 0 -1 0 144.42)" display="none" fill="none" stroke="#000" stroke-linecap="round" stroke-linejoin="bevel">
  <path d="m36.96 54.283 30.773-13.45 30.773 13.45-30.773 13.45z" display="inline" stroke-width=".2"/>
  <path d="m36.96 54.283 30.773 13.45 0.0365 35.853-30.773-13.45z" display="inline" stroke-width=".2"/>
  <path d="m98.507 54.283-30.773 13.45-0.0365 35.853 30.773-13.45z" display="inline" stroke-width=".2"/>
 </g>
</svg>
