<?xml version="1.0" encoding="UTF-8"?>
<!-- Created with Inkscape (http://www.inkscape.org/) -->
<svg width="128" height="128" version="1.1" viewBox="0 0 33.867 33.867" xmlns="http://www.w3.org/2000/svg">
 <path transform="scale(.26458)" d="m64 0.63086a2.5197 2.5197 0 0 0-1.5117 0.50391l-60.977 45.73a0.62992 0.62992 0 0 0 0.37891 1.1348h12.219a1.8898 1.8898 0 0 1 1.8906 1.8906v76.219a1.8898 1.8898 0 0 0 1.8906 1.8906h32c-1.0469 0-1.8906-0.8437-1.8906-1.8906v-68.219c0-1.0469 0.8437-1.8906 1.8906-1.8906h28.219c1.0469 0 1.8906 0.8437 1.8906 1.8906v68.219c0 1.0469-0.8437 1.8906-1.8906 1.8906h32a1.8898 1.8898 0 0 0 1.8906-1.8906v-76.219a1.8898 1.8898 0 0 1 1.8906-1.8906h12.219a0.62992 0.62992 0 0 0 0.3789-1.1348l-60.977-45.73a2.5197 2.5197 0 0 0-1.5117-0.50391z" fill="#fff"/>
</svg>
