<?xml version="1.0" encoding="UTF-8" standalone="no"?>
<!-- Created with Inkscape (http://www.inkscape.org/) -->

<svg
   width="128"
   height="128"
   viewBox="0 0 33.866667 33.866667"
   version="1.1"
   id="svg5"
   inkscape:version="1.1.2 (0a00cf5339, 2022-02-04)"
   sodipodi:docname="site_original.svg"
   xmlns:inkscape="http://www.inkscape.org/namespaces/inkscape"
   xmlns:sodipodi="http://sodipodi.sourceforge.net/DTD/sodipodi-0.dtd"
   xmlns="http://www.w3.org/2000/svg"
   xmlns:svg="http://www.w3.org/2000/svg">
  <sodipodi:namedview
     id="namedview7"
     pagecolor="#ffffff"
     bordercolor="#666666"
     borderopacity="1.0"
     inkscape:pageshadow="2"
     inkscape:pageopacity="0.0"
     inkscape:pagecheckerboard="true"
     inkscape:document-units="px"
     showgrid="false"
     units="px"
     inkscape:zoom="2.4545455"
     inkscape:cx="147.68519"
     inkscape:cy="66.611111"
     inkscape:window-width="1920"
     inkscape:window-height="1035"
     inkscape:window-x="1920"
     inkscape:window-y="0"
     inkscape:window-maximized="1"
     inkscape:current-layer="layer1" />
  <defs
     id="defs2" />
  <g
     inkscape:label="Layer 1"
     inkscape:groupmode="layer"
     id="layer1">
    <path
       id="path4728"
       style="fill:#ffffff;stroke-width:3;stroke-linecap:round"
       d="M 64,0 A 64.000002,64.000773 0 0 0 0,64 64.000002,64.000773 0 0 0 64,128 64.000002,64.000773 0 0 0 128,64 64.000002,64.000773 0 0 0 64,0 Z m 0,8 A 56.000001,56.000677 0 0 1 120,64 56.000001,56.000677 0 0 1 64,120 56.000001,56.000677 0 0 1 8,64 56.000001,56.000677 0 0 1 64,8 Z"
       transform="scale(0.26458334)" />
    <path
       id="path4728-3-6"
       style="fill:#ffffff;stroke-width:0.793748;stroke-linecap:round"
       d="m 29.633333,16.933334 a 12.7,12.700153 0 0 1 -12.7,12.700152 A 12.7,12.700153 0 0 1 4.2333336,16.933334 12.7,12.700153 0 0 1 16.933333,4.233181 a 12.7,12.700153 0 0 1 12.7,12.700153 z" />
  </g>
</svg>
