<?xml version="1.0" encoding="UTF-8"?>
<!-- Created with Inkscape (http://www.inkscape.org/) -->
<svg width="128" height="128" version="1.1" viewBox="0 0 33.867 33.867" xmlns="http://www.w3.org/2000/svg">
 <g fill="#fff" stroke-linecap="round">
  <path transform="scale(.26458)" d="m64 0a64 64.001 0 0 0-64 64 64 64.001 0 0 0 64 64 64 64.001 0 0 0 64-64 64 64.001 0 0 0-64-64zm0 8a56 56.001 0 0 1 56 56 56 56.001 0 0 1-56 56 56 56.001 0 0 1-56-56 56 56.001 0 0 1 56-56z" stroke-width="3"/>
  <path d="m29.633 16.933a12.7 12.7 0 0 1-12.7 12.7 12.7 12.7 0 0 1-12.7-12.7 12.7 12.7 0 0 1 12.7-12.7 12.7 12.7 0 0 1 12.7 12.7z" stroke-width=".79375"/>
 </g>
</svg>
